<svg width="100" height="100" viewBox="0 0 100 100" fill="none" xmlns="http://www.w3.org/2000/svg">
<rect width="100" height="100" fill="#E5E5E5"/>
<rect width="100" height="100" fill="white"/>
<rect width="100" height="100" fill="#007FF1"/>
<path d="M24.2141 56.26C23.1394 56.26 22.2121 56.1387 21.4321 55.896C20.6694 55.636 20.0454 55.324 19.5601 54.96C19.0921 54.596 18.7368 54.232 18.4941 53.868C18.2688 53.4867 18.1474 53.166 18.1301 52.906C18.1128 52.7153 18.1734 52.5593 18.3121 52.438C18.4508 52.3167 18.5894 52.256 18.7281 52.256H21.2501C21.3021 52.256 21.3541 52.2647 21.4061 52.282C21.4581 52.2993 21.5101 52.3427 21.5621 52.412C21.7874 52.568 22.0214 52.75 22.2641 52.958C22.5068 53.1487 22.7841 53.3133 23.0961 53.452C23.4254 53.5907 23.8328 53.66 24.3181 53.66C24.8901 53.66 25.3754 53.5473 25.7741 53.322C26.1728 53.0793 26.3721 52.7413 26.3721 52.308C26.3721 51.996 26.2768 51.736 26.0861 51.528C25.9128 51.32 25.5748 51.1293 25.0721 50.956C24.5694 50.7827 23.8241 50.592 22.8361 50.384C21.9001 50.176 21.1028 49.8987 20.4441 49.552C19.7854 49.2053 19.2914 48.772 18.9621 48.252C18.6328 47.7147 18.4681 47.0733 18.4681 46.328C18.4681 45.652 18.6761 45.002 19.0921 44.378C19.5254 43.754 20.1581 43.2427 20.9901 42.844C21.8221 42.428 22.8621 42.22 24.1101 42.22C25.0634 42.22 25.8954 42.3413 26.6061 42.584C27.3341 42.8093 27.9408 43.104 28.4261 43.468C28.9114 43.8147 29.2754 44.1787 29.5181 44.56C29.7781 44.924 29.9168 45.2447 29.9341 45.522C29.9514 45.6953 29.8994 45.8427 29.7781 45.964C29.6568 46.0853 29.5181 46.146 29.3621 46.146H27.0481C26.9614 46.146 26.8834 46.1373 26.8141 46.12C26.7448 46.0853 26.6841 46.042 26.6321 45.99C26.4241 45.8513 26.2074 45.6953 25.9821 45.522C25.7741 45.3313 25.5228 45.1667 25.2281 45.028C24.9334 44.8893 24.5521 44.82 24.0841 44.82C23.5121 44.82 23.0701 44.95 22.7581 45.21C22.4634 45.4527 22.3161 45.7647 22.3161 46.146C22.3161 46.3887 22.3941 46.614 22.5501 46.822C22.7061 47.03 23.0268 47.2207 23.5121 47.394C23.9974 47.5673 24.7341 47.7493 25.7221 47.94C26.9008 48.148 27.8368 48.46 28.5301 48.876C29.2234 49.292 29.7174 49.7773 30.0121 50.332C30.3241 50.8693 30.4801 51.45 30.4801 52.074C30.4801 52.8887 30.2374 53.6167 29.7521 54.258C29.2668 54.882 28.5561 55.376 27.6201 55.74C26.7014 56.0867 25.5661 56.26 24.2141 56.26ZM33.4699 56C33.2792 56 33.1232 55.9393 33.0019 55.818C32.8806 55.6967 32.8199 55.5407 32.8199 55.35V52.438C32.8199 52.2473 32.8806 52.0913 33.0019 51.97C33.1232 51.8487 33.2792 51.788 33.4699 51.788H36.3819C36.5726 51.788 36.7286 51.8487 36.8499 51.97C36.9712 52.0913 37.0319 52.2473 37.0319 52.438V55.35C37.0319 55.5407 36.9712 55.6967 36.8499 55.818C36.7286 55.9393 36.5726 56 36.3819 56H33.4699ZM46.0151 56.26C44.7498 56.26 43.6318 56.026 42.6611 55.558C41.7078 55.09 40.9538 54.414 40.3991 53.53C39.8444 52.6287 39.5411 51.554 39.4891 50.306C39.4718 50.0287 39.4631 49.682 39.4631 49.266C39.4631 48.8327 39.4718 48.4773 39.4891 48.2C39.5411 46.9347 39.8358 45.86 40.3731 44.976C40.9278 44.0747 41.6904 43.39 42.6611 42.922C43.6318 42.454 44.7498 42.22 46.0151 42.22C47.1764 42.22 48.1644 42.3847 48.9791 42.714C49.7938 43.026 50.4611 43.4247 50.9811 43.91C51.5011 44.3953 51.8824 44.9067 52.1251 45.444C52.3851 45.964 52.5238 46.4233 52.5411 46.822C52.5584 46.9953 52.4978 47.1513 52.3591 47.29C52.2378 47.4113 52.0904 47.472 51.9171 47.472H49.1351C48.9618 47.472 48.8231 47.4287 48.7191 47.342C48.6324 47.238 48.5458 47.0993 48.4591 46.926C48.2164 46.3193 47.9044 45.886 47.5231 45.626C47.1418 45.366 46.6651 45.236 46.0931 45.236C45.3131 45.236 44.6978 45.4873 44.2471 45.99C43.7964 46.4927 43.5538 47.2727 43.5191 48.33C43.5018 49.006 43.5018 49.6213 43.5191 50.176C43.5711 51.2507 43.8138 52.0307 44.2471 52.516C44.6978 53.0013 45.3131 53.244 46.0931 53.244C46.6998 53.244 47.1851 53.114 47.5491 52.854C47.9131 52.594 48.2164 52.1607 48.4591 51.554C48.5284 51.3807 48.6151 51.2507 48.7191 51.164C48.8231 51.06 48.9618 51.008 49.1351 51.008H51.9171C52.0904 51.008 52.2378 51.0773 52.3591 51.216C52.4978 51.3373 52.5584 51.4847 52.5411 51.658C52.5238 51.9527 52.4371 52.2993 52.2811 52.698C52.1424 53.0967 51.9084 53.504 51.5791 53.92C51.2671 54.336 50.8598 54.726 50.3571 55.09C49.8544 55.4367 49.2391 55.7227 48.5111 55.948C47.8004 56.156 46.9684 56.26 46.0151 56.26ZM55.5851 56C55.3945 56 55.2385 55.9393 55.1171 55.818C54.9958 55.6967 54.9351 55.5407 54.9351 55.35V52.438C54.9351 52.2473 54.9958 52.0913 55.1171 51.97C55.2385 51.8487 55.3945 51.788 55.5851 51.788H58.4971C58.6878 51.788 58.8438 51.8487 58.9651 51.97C59.0865 52.0913 59.1471 52.2473 59.1471 52.438V55.35C59.1471 55.5407 59.0865 55.6967 58.9651 55.818C58.8438 55.9393 58.6878 56 58.4971 56H55.5851ZM68.1303 56.26C66.865 56.26 65.747 56.026 64.7763 55.558C63.823 55.09 63.069 54.414 62.5143 53.53C61.9597 52.6287 61.6563 51.554 61.6043 50.306C61.587 50.0287 61.5783 49.682 61.5783 49.266C61.5783 48.8327 61.587 48.4773 61.6043 48.2C61.6563 46.9347 61.951 45.86 62.4883 44.976C63.043 44.0747 63.8057 43.39 64.7763 42.922C65.747 42.454 66.865 42.22 68.1303 42.22C69.2917 42.22 70.2797 42.3847 71.0943 42.714C71.909 43.026 72.5763 43.4247 73.0963 43.91C73.6163 44.3953 73.9977 44.9067 74.2403 45.444C74.5003 45.964 74.639 46.4233 74.6563 46.822C74.6737 46.9953 74.613 47.1513 74.4743 47.29C74.353 47.4113 74.2057 47.472 74.0323 47.472H71.2503C71.077 47.472 70.9383 47.4287 70.8343 47.342C70.7477 47.238 70.661 47.0993 70.5743 46.926C70.3317 46.3193 70.0197 45.886 69.6383 45.626C69.257 45.366 68.7803 45.236 68.2083 45.236C67.4283 45.236 66.813 45.4873 66.3623 45.99C65.9117 46.4927 65.669 47.2727 65.6343 48.33C65.617 49.006 65.617 49.6213 65.6343 50.176C65.6863 51.2507 65.929 52.0307 66.3623 52.516C66.813 53.0013 67.4283 53.244 68.2083 53.244C68.815 53.244 69.3003 53.114 69.6643 52.854C70.0283 52.594 70.3317 52.1607 70.5743 51.554C70.6437 51.3807 70.7303 51.2507 70.8343 51.164C70.9383 51.06 71.077 51.008 71.2503 51.008H74.0323C74.2057 51.008 74.353 51.0773 74.4743 51.216C74.613 51.3373 74.6737 51.4847 74.6563 51.658C74.639 51.9527 74.5523 52.2993 74.3963 52.698C74.2577 53.0967 74.0237 53.504 73.6943 53.92C73.3823 54.336 72.975 54.726 72.4723 55.09C71.9697 55.4367 71.3543 55.7227 70.6263 55.948C69.9157 56.156 69.0837 56.26 68.1303 56.26ZM77.7004 56C77.5097 56 77.3537 55.9393 77.2324 55.818C77.111 55.6967 77.0504 55.5407 77.0504 55.35V52.438C77.0504 52.2473 77.111 52.0913 77.2324 51.97C77.3537 51.8487 77.5097 51.788 77.7004 51.788H80.6124C80.803 51.788 80.959 51.8487 81.0804 51.97C81.2017 52.0913 81.2624 52.2473 81.2624 52.438V55.35C81.2624 55.5407 81.2017 55.6967 81.0804 55.818C80.959 55.9393 80.803 56 80.6124 56H77.7004Z" fill="white"/>
</svg>
